<svg xmlns="http://www.w3.org/2000/svg" fill="none" viewBox="0 0 40 40"><mask id="a" width="40" height="40" x="0" y="0" maskUnits="userSpaceOnUse"><circle cx="20" cy="20" r="20" fill="#D9D9D9"/></mask><g fill="#fff" mask="url(#a)"><path d="M43.5 3a.5.5 0 0 0 0-1v1Zm0-1h-46v1h46V2Zm0 6a.5.5 0 0 0 0-1v1Zm0-1h-46v1h46V7Zm0 6a.5.5 0 0 0 0-1v1Zm0-1h-46v1h46v-1Zm0 6a.5.5 0 0 0 0-1v1Zm0-1h-46v1h46v-1Zm0 6a.5.5 0 0 0 0-1v1Zm0-1h-46v1h46v-1Zm0 6a.5.5 0 0 0 0-1v1Zm0-1h-46v1h46v-1Zm0 6a.5.5 0 0 0 0-1v1Zm0-1h-46v1h46v-1Zm0 6a.5.5 0 0 0 0-1v1Zm0-1h-46v1h46v-1Z"/><path d="M27 3.5a1 1 0 1 0 0-2v2Zm0-2h-46v2h46v-2Zm-2 7a1 1 0 1 0 0-2v2Zm0-2h-46v2h46v-2Zm-2 7a1 1 0 1 0 0-2v2Zm0-2h-46v2h46v-2Zm-1.5 7a1 1 0 1 0 0-2v2Zm0-2h-46v2h46v-2Zm-1 7a1 1 0 1 0 0-2v2Zm0-2h-46v2h46v-2Zm2 7a1 1 0 1 0 0-2v2Zm0-2h-46v2h46v-2Zm2.5 7a1 1 0 1 0 0-2v2Zm0-2h-46v2h46v-2Zm2 7a1 1 0 1 0 0-2v2Zm0-2h-46v2h46v-2Z"/></g></svg>